<?xml version="1.0" encoding="utf-8"?>
<!-- Generator: Adobe Illustrator 19.1.0, SVG Export Plug-In . SVG Version: 6.00 Build 0)  -->
<svg version="1.1" id="Layer_1" xmlns="http://www.w3.org/2000/svg" xmlns:xlink="http://www.w3.org/1999/xlink" x="0px" y="0px"
	 viewBox="0 0 64 64" enable-background="new 0 0 64 64" xml:space="preserve">
<g id="Drop">
	<path d="M31.8477993,0C31.8111992,0.0438,12.000001,30.6966,12.000001,43.9394989C12.000001,55.0102005,20.962101,64,32.0009003,64
		C43.0377998,64,52,55.0102005,52,43.9394989C52,30.6966,31.8337994,0.0805,31.8477993,0z M32.0009003,62.0031013
		c-9.9274006,0-18.0038986-8.103302-18.0038986-18.0636024c0-9.7953987,12.2785997-31.2713985,17.8386002-40.2062988
		c11.4061985,18.2754993,18.1675014,33.2098007,18.1675014,40.2062988
		C50.0031013,53.8997993,41.9274139,62.0031013,32.0009003,62.0031013z"/>
	<path d="M42.0634995,45.0859985c-0.4921989-0.0401001-0.9423981,0.3457031-0.9775009,0.850502
		c-0.4667969,6.7256012-6.8535004,7.1338005-7.1298981,7.1484985c-0.5049019,0.0244026-0.8945007,0.4521027-0.8711014,0.9570007
		c0.0224991,0.4911995,0.4277,0.8740005,0.9141006,0.8740005c0.0145988,0,0.0283165,0,0.0429001-0.0009003
		c0.0830002-0.0029984,8.2910995-0.4766006,8.8721008-8.8516006C42.9492989,45.5586014,42.5684166,45.1211014,42.0634995,45.0859985
		z"/>
</g>
<g>
</g>
<g>
</g>
<g>
</g>
<g>
</g>
<g>
</g>
<g>
</g>
<g>
</g>
<g>
</g>
<g>
</g>
<g>
</g>
<g>
</g>
<g>
</g>
<g>
</g>
<g>
</g>
<g>
</g>
</svg>
