<?xml version="1.0" encoding="UTF-8" standalone="no"?>
<!-- Generator: Adobe Illustrator 19.1.0, SVG Export Plug-In . SVG Version: 6.00 Build 0)  -->

<svg
   xmlns:dc="http://purl.org/dc/elements/1.1/"
   xmlns:cc="http://creativecommons.org/ns#"
   xmlns:rdf="http://www.w3.org/1999/02/22-rdf-syntax-ns#"
   xmlns:svg="http://www.w3.org/2000/svg"
   xmlns="http://www.w3.org/2000/svg"
   xmlns:sodipodi="http://sodipodi.sourceforge.net/DTD/sodipodi-0.dtd"
   xmlns:inkscape="http://www.inkscape.org/namespaces/inkscape"
   version="1.1"
   id="Layer_1"
   x="0px"
   y="0px"
   viewBox="0 0 64 64"
   enable-background="new 0 0 64 64"
   xml:space="preserve"
   inkscape:version="0.48.5 r10040"
   width="100%"
   height="100%"
   sodipodi:docname="thunder.svg"><metadata
     id="metadata3129"><rdf:RDF><cc:Work
         rdf:about=""><dc:format>image/svg+xml</dc:format><dc:type
           rdf:resource="http://purl.org/dc/dcmitype/StillImage" /><dc:title></dc:title></cc:Work></rdf:RDF></metadata><defs
     id="defs3127" /><sodipodi:namedview
     pagecolor="#ffffff"
     bordercolor="#666666"
     borderopacity="1"
     objecttolerance="10"
     gridtolerance="10"
     guidetolerance="10"
     inkscape:pageopacity="0"
     inkscape:pageshadow="2"
     inkscape:window-width="1920"
     inkscape:window-height="1030"
     id="namedview3125"
     showgrid="false"
     inkscape:zoom="13.203125"
     inkscape:cx="32"
     inkscape:cy="22.911243"
     inkscape:window-x="0"
     inkscape:window-y="0"
     inkscape:window-maximized="1"
     inkscape:current-layer="Layer_1" /><g
     id="g3095" /><g
     id="g3097" /><g
     id="g3099" /><g
     id="g3101" /><g
     id="g3103" /><g
     id="g3105" /><g
     id="g3107" /><g
     id="g3109" /><g
     id="g3111" /><g
     id="g3113" /><g
     id="g3115" /><g
     id="g3117" /><g
     id="g3119" /><g
     id="g3121" /><g
     id="g3123" /><g
     id="g4376"
     transform="matrix(0.99213839,0,0,0.96923077,0.44091955,1.3254421)"
     style="fill:#ffffff"><g
       id="Lighting-cloud"
       style="fill:#ffffff"><path
         id="path4336"
         d="M 51.241241,15.7852 C 50.60984,6.9833999 43.221142,0 34.275356,0 26.459442,0 19.720741,5.2919998 17.803242,12.751 c -1.192885,-0.4356 -2.4468,-0.6553 -3.7417,-0.6553 -6.0453992,0 -10.9638991,4.918 -10.9638991,10.962899 0,6.044899 4.9184999,10.962901 10.9638991,10.962901 h 37.714814 c 5.032184,0 9.126003,-4.0938 9.126003,-9.126 4.81e-4,-5.210001 -4.413616,-9.4267 -9.661118,-9.1103 z m 0.535115,16.2363 H 14.061543 c -4.9429002,0 -8.9639001,-4.020501 -8.9639001,-8.962901 0,-4.9424 4.0210004,-8.962899 8.9639001,-8.962899 1.4101,0 2.7593,0.3184 4.0102,0.9463 0.282299,0.1435 0.6143,0.1426 0.895498,10e-4 0.282301,-0.1407 0.481001,-0.4063 0.537201,-0.716801 C 20.795942,7.1835999 27.007841,2 34.275356,2 c 8.224186,0 14.957085,6.6894999 15.009285,14.9121 0.002,0.2959 0.1348,0.5762 0.362301,0.7647 0.2276,0.1884 0.527416,0.2656 0.818417,0.212801 0.434082,-0.08 0.875,-0.1201 1.310997,-0.1201 3.929184,0 7.126003,3.196298 7.126003,7.125999 0,3.929701 -3.196819,7.126 -7.126003,7.126 z"
         inkscape:connector-curvature="0"
         style="fill:#ffffff" /><path
         id="path4338"
         d="m 35.132843,45.899399 -3.310101,0.0332 1.258801,-9.145496 c 0.0635,-0.460903 -0.199184,-0.9053 -0.6343,-1.071301 -0.433602,-0.164001 -0.925801,-0.0097 -1.186001,0.376 l -9.5874,14.237301 c -0.208001,0.309597 -0.227099,0.708 -0.0493,1.036098 0.1777,0.327202 0.539,0.5508 0.895501,0.522499 l 3.505315,-0.0596 -1.809,11.0098 c -0.07721,0.470704 0.188885,0.931603 0.636185,1.098603 0.114698,0.043 0.233398,0.0635 0.350099,0.0635 0.3389,0 0.664999,-0.172901 0.851599,-0.474602 l 9.939899,-16.1006 c 0.191403,-0.310501 0.198701,-0.6992 0.0195,-1.016602 -0.179199,-0.317398 -0.546798,-0.549801 -0.880798,-0.5088 z M 27.010242,58.1689 28.193357,50.970699 c 0.04788,-0.292999 -0.03611,-0.5918 -0.229999,-0.815399 -0.189917,-0.220699 -0.466316,-0.346699 -0.756815,-0.346699 -0.0054,0 -0.01119,0 -0.0166,0 l -2.786098,0.0469 6.108898,-9.0713 -0.829199,6.023399 c -0.0395,0.288101 0.0484,0.579102 0.240299,0.797901 0.1924,0.218701 0.4541,0.336903 0.760701,0.338803 l 2.654813,-0.0263 -6.329113,10.250901 z"
         inkscape:connector-curvature="0"
         style="fill:#ffffff" /></g><g
       id="g4340"
       style="fill:#ffffff" /><g
       id="g4342"
       style="fill:#ffffff" /><g
       id="g4344"
       style="fill:#ffffff" /><g
       id="g4346"
       style="fill:#ffffff" /><g
       id="g4348"
       style="fill:#ffffff" /><g
       id="g4350"
       style="fill:#ffffff" /><g
       id="g4352"
       style="fill:#ffffff" /><g
       id="g4354"
       style="fill:#ffffff" /><g
       id="g4356"
       style="fill:#ffffff" /><g
       id="g4358"
       style="fill:#ffffff" /><g
       id="g4360"
       style="fill:#ffffff" /><g
       id="g4362"
       style="fill:#ffffff" /><g
       id="g4364"
       style="fill:#ffffff" /><g
       id="g4366"
       style="fill:#ffffff" /><g
       id="g4368"
       style="fill:#ffffff" /></g></svg>