<?xml version="1.0" encoding="utf-8"?>
<!-- Generator: Adobe Illustrator 19.1.0, SVG Export Plug-In . SVG Version: 6.00 Build 0)  -->
<svg version="1.1" id="Layer_1" xmlns="http://www.w3.org/2000/svg" xmlns:xlink="http://www.w3.org/1999/xlink" x="0px" y="0px"
	 viewBox="0 0 64 64" enable-background="new 0 0 64 64" xml:space="preserve">
<g id="LIghting-circle">
	<path d="M39.7604446,28.5073509l-5.7763023-0.0313015l5.1025009-15.5155993
		c0.0996017-0.3037004,0.047802-0.6377001-0.1386986-0.8975c-0.1875-0.2587004-0.4873009-0.4140005-0.8066025-0.415
		l-11.9306984-0.0527c-0.0018883,0-0.0038872,0-0.0048885,0c-0.5185108,0-0.9511108,0.3964996-0.9961109,0.9131002
		l-1.9598885,22.4150009c-0.0244122,0.2792969,0.0692883,0.5556984,0.2587872,0.7626991
		c0.1894016,0.2060013,0.4570007,0.3241997,0.7373009,0.3241997h4.9960995l-1.1835995,19.7118988
		c-0.0293007,0.4883003,0.2987995,0.9267998,0.7763004,1.035202c0.0742989,0.0165977,0.1484985,0.0243988,0.2216988,0.0243988
		c0.3994122,0,0.7705002-0.2402,0.9258003-0.6231003l10.6982002-26.2743988c0.1259995-0.3076,0.089901-0.6571999-0.0946999-0.9326
		C40.4011421,28.6753502,40.0925446,28.5092506,39.7604446,28.5073509z M30.4177551,49.7856483l0.883688-14.7157974
		c0.0165997-0.2744026-0.0809994-0.5449028-0.2705002-0.7451019c-0.1884003-0.2011986-0.4520988-0.3144989-0.727499-0.3144989
		h-4.9668007l1.7852001-20.4111004l9.6346989,0.0429001l-5.1014996,15.5137005
		c-0.099699,0.3036995-0.0478992,0.6366997,0.1386013,0.8964996c0.1865997,0.2598,0.4864006,0.4141006,0.8056984,0.4160004
		l5.6719017,0.0312996L30.4177551,49.7856483z"/>
	<path d="M31.9997559,0.00045c-17.6445122,0-31.9995117,14.3544998-31.9995117,31.9981003
		c0,17.6455002,14.3549995,32.0009995,31.9995117,32.0009995c17.6444855,0,32-14.3554993,32-32.0009995
		C63.9997559,14.35495,49.6442413,0.00045,31.9997559,0.00045z M31.9997559,61.9995499
		c-16.5419998,0-29.9995117-13.4580002-29.9995117-30.0009995c0-16.5410004,13.4575119-29.9981003,29.9995117-29.9981003
		s30,13.4570999,30,29.9981003C61.9997559,48.5415497,48.5417557,61.9995499,31.9997559,61.9995499z"/>
</g>
<g>
</g>
<g>
</g>
<g>
</g>
<g>
</g>
<g>
</g>
<g>
</g>
<g>
</g>
<g>
</g>
<g>
</g>
<g>
</g>
<g>
</g>
<g>
</g>
<g>
</g>
<g>
</g>
<g>
</g>
</svg>
