<?xml version="1.0" encoding="utf-8"?>
<!-- Generator: Adobe Illustrator 19.1.0, SVG Export Plug-In . SVG Version: 6.00 Build 0)  -->
<svg version="1.1" id="Layer_1" xmlns="http://www.w3.org/2000/svg" xmlns:xlink="http://www.w3.org/1999/xlink" x="0px" y="0px"
	 viewBox="0 0 64 64" enable-background="new 0 0 64 64" xml:space="preserve">
<g id="Night">
	<path fill-rule="evenodd" clip-rule="evenodd" d="M59.0263863,49.4238014
		c-0.2870979-0.3632011-0.7831993-0.4813995-1.202198-0.288002c-3.2871017,1.5126991-6.8026924,2.2793007-10.4482002,2.2793007
		c-13.8056984,0-25.0370998-11.2314987-25.0370998-25.0361996c0-9.767601,5.7451-18.7089996,14.6367016-22.7793007
		c0.4189987-0.1914001,0.6523972-0.6445,0.5663986-1.0976c-0.0868988-0.4522002-0.4716988-0.7871001-0.9315987-0.8106
		C36.1122894,1.666,35.6093903,1.6543,35.104496,1.6543c-16.733408,0-30.3467064,13.6133003-30.3467064,30.3466988
		c0,16.732399,13.6132984,30.3446999,30.3467064,30.3446999c9.4042931,0,18.125-4.2597008,23.9257927-11.6865005
		C59.3144951,50.2958984,59.3124924,49.7851982,59.0263863,49.4238014z M35.104496,60.3456993
		c-15.6308079,0-28.3467064-12.7157974-28.3467064-28.3446999c0-14.7705002,11.3554993-26.9394989,25.7958984-28.232399
		c-7.5292988,4.9510999-12.2147999,13.4433002-12.2147999,22.6103001c0,14.9082012,12.1289005,27.0361996,27.0370998,27.0361996
		c2.5429993,0,5.0273018-0.3456993,7.4248009-1.0312996C49.5439873,57.4844017,42.553688,60.3456993,35.104496,60.3456993z"/>
	<polygon fill-rule="evenodd" clip-rule="evenodd" points="46.0959892,38 49.0549889,34.4847984 53.3139877,36.2123985 
		50.8837891,32.3117981 53.8429871,28.7952995 49.3825874,29.9006996 46.9526863,26 46.6261864,30.5841007 42.1659889,31.6896 
		46.4235878,33.417099 	"/>
	<polygon fill-rule="evenodd" clip-rule="evenodd" points="51.0180893,13.4667997 53.4843864,10.5363998 57.0326881,11.9763002 
		55.0070877,8.7254 57.4733887,5.7961998 53.7558861,6.7165999 51.7314949,3.4668 51.4589882,7.2866001 47.7424927,8.2069998 
		51.2907867,9.6470003 	"/>
</g>
<g>
</g>
<g>
</g>
<g>
</g>
<g>
</g>
<g>
</g>
<g>
</g>
<g>
</g>
<g>
</g>
<g>
</g>
<g>
</g>
<g>
</g>
<g>
</g>
<g>
</g>
<g>
</g>
<g>
</g>
</svg>
