<?xml version="1.0" encoding="UTF-8" standalone="no"?>
<!-- Generator: Adobe Illustrator 19.1.0, SVG Export Plug-In . SVG Version: 6.00 Build 0)  -->

<svg
   xmlns:dc="http://purl.org/dc/elements/1.1/"
   xmlns:cc="http://creativecommons.org/ns#"
   xmlns:rdf="http://www.w3.org/1999/02/22-rdf-syntax-ns#"
   xmlns:svg="http://www.w3.org/2000/svg"
   xmlns="http://www.w3.org/2000/svg"
   xmlns:sodipodi="http://sodipodi.sourceforge.net/DTD/sodipodi-0.dtd"
   xmlns:inkscape="http://www.inkscape.org/namespaces/inkscape"
   version="1.1"
   id="Layer_1"
   x="0px"
   y="0px"
   viewBox="0 0 64 64"
   enable-background="new 0 0 64 64"
   xml:space="preserve"
   inkscape:version="0.48.5 r10040"
   width="100%"
   height="100%"
   sodipodi:docname="night.svg"><metadata
     id="metadata3129"><rdf:RDF><cc:Work
         rdf:about=""><dc:format>image/svg+xml</dc:format><dc:type
           rdf:resource="http://purl.org/dc/dcmitype/StillImage" /><dc:title></dc:title></cc:Work></rdf:RDF></metadata><defs
     id="defs3127" /><sodipodi:namedview
     pagecolor="#ffffff"
     bordercolor="#666666"
     borderopacity="1"
     objecttolerance="10"
     gridtolerance="10"
     guidetolerance="10"
     inkscape:pageopacity="0"
     inkscape:pageshadow="2"
     inkscape:window-width="1920"
     inkscape:window-height="1030"
     id="namedview3125"
     showgrid="false"
     inkscape:zoom="13.203125"
     inkscape:cx="32"
     inkscape:cy="32"
     inkscape:window-x="0"
     inkscape:window-y="0"
     inkscape:window-maximized="1"
     inkscape:current-layer="Layer_1" /><g
     id="g3095" /><g
     id="g3097" /><g
     id="g3099" /><g
     id="g3101" /><g
     id="g3103" /><g
     id="g3105" /><g
     id="g3107" /><g
     id="g3109" /><g
     id="g3111" /><g
     id="g3113" /><g
     id="g3115" /><g
     id="g3117" /><g
     id="g3119" /><g
     id="g3121" /><g
     id="g3123" /><g
     id="g3721"
     transform="translate(-0.03787,-0.5680469)"
     style="fill:#ffffff"><g
       id="Night"
       style="fill:#ffffff"><path
         id="path3679"
         d="m 59.026386,49.423801 c -0.287098,-0.363201 -0.783199,-0.481399 -1.202198,-0.288002 -3.287101,1.5127 -6.802692,2.279301 -10.4482,2.279301 -13.805698,0 -25.0371,-11.231499 -25.0371,-25.036199 0,-9.767602 5.7451,-18.7090001 14.636702,-22.7793012 0.418999,-0.1914001 0.652397,-0.6445 0.566398,-1.0976 -0.0869,-0.4522002 -0.471698,-0.7871001 -0.931598,-0.8106 -0.498101,-0.0254 -1.001,-0.0371 -1.505894,-0.0371 -16.733408,0 -30.3467064,13.6133002 -30.3467064,30.3466992 0,16.732399 13.6132984,30.3447 30.3467064,30.3447 9.404293,0 18.125,-4.259701 23.925793,-11.686501 0.284206,-0.3633 0.282203,-0.874 -0.0039,-1.235397 z m -23.92189,10.921898 c -15.630808,0 -28.3467064,-12.715797 -28.3467064,-28.3447 0,-14.7705 11.3554994,-26.9394985 25.7958984,-28.2323986 -7.529299,4.9510999 -12.2148,13.4433006 -12.2148,22.6102996 0,14.908202 12.128901,27.0362 27.0371,27.0362 2.542999,0 5.027302,-0.345699 7.424801,-1.0313 -5.256802,5.100602 -12.247101,7.961899 -19.696293,7.961899 z"
         clip-rule="evenodd"
         inkscape:connector-curvature="0"
         style="fill-rule:evenodd;fill:#ffffff" /><polygon
         id="polygon3681"
         points="46.626186,30.584101 42.165989,31.6896 46.423588,33.417099 46.095989,38 49.054989,34.484798 53.313988,36.212398 50.883789,32.311798 53.842987,28.795299 49.382587,29.9007 46.952686,26 "
         clip-rule="evenodd"
         style="fill-rule:evenodd;fill:#ffffff" /><polygon
         id="polygon3683"
         points="51.458988,7.2866001 47.742493,8.2069998 51.290787,9.6470003 51.018089,13.4668 53.484386,10.5364 57.032688,11.9763 55.007088,8.7254 57.473389,5.7961998 53.755886,6.7165999 51.731495,3.4668 "
         clip-rule="evenodd"
         style="fill-rule:evenodd;fill:#ffffff" /></g><g
       id="g3685"
       style="fill:#ffffff" /><g
       id="g3687"
       style="fill:#ffffff" /><g
       id="g3689"
       style="fill:#ffffff" /><g
       id="g3691"
       style="fill:#ffffff" /><g
       id="g3693"
       style="fill:#ffffff" /><g
       id="g3695"
       style="fill:#ffffff" /><g
       id="g3697"
       style="fill:#ffffff" /><g
       id="g3699"
       style="fill:#ffffff" /><g
       id="g3701"
       style="fill:#ffffff" /><g
       id="g3703"
       style="fill:#ffffff" /><g
       id="g3705"
       style="fill:#ffffff" /><g
       id="g3707"
       style="fill:#ffffff" /><g
       id="g3709"
       style="fill:#ffffff" /><g
       id="g3711"
       style="fill:#ffffff" /><g
       id="g3713"
       style="fill:#ffffff" /></g></svg>