<?xml version="1.0" encoding="UTF-8" standalone="no"?>
<!-- Generator: Adobe Illustrator 19.1.0, SVG Export Plug-In . SVG Version: 6.00 Build 0)  -->

<svg
   xmlns:dc="http://purl.org/dc/elements/1.1/"
   xmlns:cc="http://creativecommons.org/ns#"
   xmlns:rdf="http://www.w3.org/1999/02/22-rdf-syntax-ns#"
   xmlns:svg="http://www.w3.org/2000/svg"
   xmlns="http://www.w3.org/2000/svg"
   xmlns:sodipodi="http://sodipodi.sourceforge.net/DTD/sodipodi-0.dtd"
   xmlns:inkscape="http://www.inkscape.org/namespaces/inkscape"
   version="1.1"
   id="Layer_1"
   x="0px"
   y="0px"
   viewBox="0 0 64 64"
   enable-background="new 0 0 64 64"
   xml:space="preserve"
   inkscape:version="0.48.5 r10040"
   width="100%"
   height="100%"
   sodipodi:docname="wind.svg"><metadata
     id="metadata3129"><rdf:RDF><cc:Work
         rdf:about=""><dc:format>image/svg+xml</dc:format><dc:type
           rdf:resource="http://purl.org/dc/dcmitype/StillImage" /><dc:title></dc:title></cc:Work></rdf:RDF></metadata><defs
     id="defs3127" /><sodipodi:namedview
     pagecolor="#ffffff"
     bordercolor="#666666"
     borderopacity="1"
     objecttolerance="10"
     gridtolerance="10"
     guidetolerance="10"
     inkscape:pageopacity="0"
     inkscape:pageshadow="2"
     inkscape:window-width="1920"
     inkscape:window-height="1030"
     id="namedview3125"
     showgrid="false"
     inkscape:zoom="13.203125"
     inkscape:cx="32"
     inkscape:cy="32"
     inkscape:window-x="0"
     inkscape:window-y="0"
     inkscape:window-maximized="1"
     inkscape:current-layer="Layer_1" /><g
     id="g3095" /><g
     id="g3097" /><g
     id="g3099" /><g
     id="g3101" /><g
     id="g3103" /><g
     id="g3105" /><g
     id="g3107" /><g
     id="g3109" /><g
     id="g3111" /><g
     id="g3113" /><g
     id="g3115" /><g
     id="g3117" /><g
     id="g3119" /><g
     id="g3121" /><g
     id="g3123" /><g
     id="g4234"
     transform="translate(0.03786951,0.11360879)"
     style="fill:#ffffff"><g
       id="Snow-cloud"
       style="fill:#ffffff"><path
         id="path4194"
         d="m 53.971699,18.679251 c -0.232399,0 -0.464901,0.0078 -0.696301,0.0234 -0.644497,-9.7714996 -8.830597,-17.544 -18.747596,-17.544 -8.673802,0 -16.146903,5.9014001 -18.223601,14.2022 C 14.956506,14.85405 13.537601,14.59715 12.0698,14.59715 5.4145055,14.59715 1e-6,20.01125 1e-6,26.665551 c 0,6.6553 5.4145045,12.069301 12.069799,12.069301 H 53.971698 C 59.501507,38.734852 64,34.235851 64,28.706551 64,23.17725 59.501507,18.679251 53.971699,18.679251 z m 0,18.055601 H 12.0698 c -5.5526992,0 -10.069799,-4.516602 -10.069799,-10.069302 0,-5.5518 4.5171003,-10.068399 10.069799,-10.068399 1.584501,0 3.100101,0.357399 4.505401,1.063499 0.2817,0.142599 0.6138,0.142599 0.8955,0.001 0.2822,-0.1406 0.480999,-0.4063 0.5371,-0.716799 1.4448,-7.9883013 8.392599,-13.7862015 16.520001,-13.7862015 9.197799,0 16.728996,7.4815005 16.788097,16.6788005 0.002,0.2959 0.1348,0.575199 0.3633,0.764601 0.228501,0.1875 0.529801,0.2647 0.819306,0.211899 0.480495,-0.0898 0.976093,-0.134699 1.473194,-0.134699 4.4267,0 8.028301,3.6005 8.028301,8.0273 0,4.426799 -3.601601,8.028301 -8.028301,8.028301 z"
         inkscape:connector-curvature="0"
         style="fill:#ffffff" /><path
         id="path4196"
         d="m 42.1436,50.841351 h -3.2532 l 2.096401,-2.189499 c 0.381798,-0.398403 0.368199,-1.031201 -0.0307,-1.414002 -0.397,-0.380901 -1.0313,-0.368198 -1.413594,0.0312 l -3.420906,3.5723 h -2.978 v -3.11 l 3.557598,-3.275799 c 0.4062,-0.374 0.432602,-1.006801 0.0586,-1.413101 -0.3741,-0.4062 -1.006901,-0.431599 -1.413101,-0.0576 L 33.1436,45.013147 v -3.171798 c 0,-0.5528 -0.4478,-1 -1,-1 -0.552302,0 -1,0.4472 -1,1 v 3.252998 l -2.1885,-2.095798 c -0.399,-0.382802 -1.031801,-0.369099 -1.414101,0.0303 -0.381799,0.398399 -0.3682,1.0312 0.0303,1.413101 l 3.5723,3.421799 v 2.9776 h -3.518095 l -3.420907,-3.5723 C 23.8228,46.869652 23.1894,46.856949 22.791,47.23785 c -0.398901,0.382801 -0.412599,1.015599 -0.0307,1.414002 l 2.096401,2.189499 h -2.7131 c -0.5523,0 -1,0.4472 -1,1 0,0.5527 0.4477,1 1,1 h 2.6306 l -2.0276,2.202098 c -0.374,0.4072 -0.3477,1.039101 0.0586,1.413102 0.1924,0.1777 0.434999,0.264598 0.6767,0.264598 0.269999,0 0.539099,-0.108299 0.736399,-0.3222 l 3.2749,-3.557598 h 3.650401 v 3.517498 l -3.5723,3.422901 c -0.398901,0.381801 -0.4121,1.014599 -0.0303,1.413101 0.382299,0.399399 1.0151,0.413998 1.4141,0.0303 l 2.1885,-2.0965 v 2.712699 c 0,0.5527 0.447698,1 1,1 0.5522,0 1,-0.4473 1,-1 v -2.631401 l 2.203098,2.028801 c 0.191902,0.1768 0.434502,0.264698 0.676701,0.264698 0.270107,0 0.539104,-0.108398 0.7359,-0.3223 0.374501,-0.4062 0.348099,-1.039096 -0.0581,-1.413097 l -3.557598,-3.2766 V 52.84135 H 36.2539 l 3.274902,3.557599 c 0.1973,0.213901 0.466297,0.3222 0.736298,0.3222 0.241703,0 0.484901,-0.0869 0.676799,-0.264599 0.406201,-0.374 0.432606,-1.005901 0.05861,-1.413101 L 38.9729,52.84135 h 3.170701 c 0.5522,0 1,-0.4473 1,-1 -10e-7,-0.552799 -0.4478,-0.999999 -1.000001,-0.999999 z"
         inkscape:connector-curvature="0"
         style="fill:#ffffff" /></g><g
       id="g4198"
       style="fill:#ffffff" /><g
       id="g4200"
       style="fill:#ffffff" /><g
       id="g4202"
       style="fill:#ffffff" /><g
       id="g4204"
       style="fill:#ffffff" /><g
       id="g4206"
       style="fill:#ffffff" /><g
       id="g4208"
       style="fill:#ffffff" /><g
       id="g4210"
       style="fill:#ffffff" /><g
       id="g4212"
       style="fill:#ffffff" /><g
       id="g4214"
       style="fill:#ffffff" /><g
       id="g4216"
       style="fill:#ffffff" /><g
       id="g4218"
       style="fill:#ffffff" /><g
       id="g4220"
       style="fill:#ffffff" /><g
       id="g4222"
       style="fill:#ffffff" /><g
       id="g4224"
       style="fill:#ffffff" /><g
       id="g4226"
       style="fill:#ffffff" /></g></svg>