<?xml version="1.0" encoding="UTF-8" standalone="no"?>
<!-- Generator: Adobe Illustrator 19.1.0, SVG Export Plug-In . SVG Version: 6.00 Build 0)  -->

<svg
   xmlns:dc="http://purl.org/dc/elements/1.1/"
   xmlns:cc="http://creativecommons.org/ns#"
   xmlns:rdf="http://www.w3.org/1999/02/22-rdf-syntax-ns#"
   xmlns:svg="http://www.w3.org/2000/svg"
   xmlns="http://www.w3.org/2000/svg"
   xmlns:sodipodi="http://sodipodi.sourceforge.net/DTD/sodipodi-0.dtd"
   xmlns:inkscape="http://www.inkscape.org/namespaces/inkscape"
   version="1.1"
   id="Layer_1"
   x="0px"
   y="0px"
   viewBox="0 0 64 64"
   enable-background="new 0 0 64 64"
   xml:space="preserve"
   inkscape:version="0.48.5 r10040"
   width="100%"
   height="100%"
   sodipodi:docname="storm.svg"><metadata
     id="metadata3129"><rdf:RDF><cc:Work
         rdf:about=""><dc:format>image/svg+xml</dc:format><dc:type
           rdf:resource="http://purl.org/dc/dcmitype/StillImage" /><dc:title></dc:title></cc:Work></rdf:RDF></metadata><defs
     id="defs3127" /><sodipodi:namedview
     pagecolor="#ffffff"
     bordercolor="#666666"
     borderopacity="1"
     objecttolerance="10"
     gridtolerance="10"
     guidetolerance="10"
     inkscape:pageopacity="0"
     inkscape:pageshadow="2"
     inkscape:window-width="1920"
     inkscape:window-height="1030"
     id="namedview3125"
     showgrid="false"
     inkscape:zoom="13.203125"
     inkscape:cx="32"
     inkscape:cy="32"
     inkscape:window-x="0"
     inkscape:window-y="0"
     inkscape:window-maximized="1"
     inkscape:current-layer="Layer_1" /><g
     id="g3095" /><g
     id="g3097" /><g
     id="g3099" /><g
     id="g3101" /><g
     id="g3103" /><g
     id="g3105" /><g
     id="g3107" /><g
     id="g3109" /><g
     id="g3111" /><g
     id="g3113" /><g
     id="g3115" /><g
     id="g3117" /><g
     id="g3119" /><g
     id="g3121" /><g
     id="g3123" /><g
     id="g3516"
     style="fill:#ffffff"><g
       id="Snowflake"
       style="fill:#ffffff"><path
         id="path3468"
         d="m 51.582501,15.6152 c -0.173401,0 -0.346699,0.0049 -0.520001,0.0146 C 50.431099,6.914 43.112297,0 34.252903,0 26.512201,0 19.837902,5.2382002 17.934502,12.623 c -1.1787,-0.4287 -2.417401,-0.6455 -3.698201,-0.6455 -5.9911991,0 -10.8651996,4.874 -10.8651996,10.865199 0,5.9912 4.8740005,10.865301 10.8651996,10.865301 H 51.5825 c 4.988301,0 9.046399,-4.058599 9.046399,-9.0469 0,-4.9883 -4.058098,-9.0459 -9.046398,-9.0459 z m 0,16.0928 H 14.236302 c -4.8882003,0 -8.8652005,-3.9766 -8.8652005,-8.865301 0,-4.888599 3.9770002,-8.865199 8.8652005,-8.865199 1.395999,0 2.730499,0.3144 3.9668,0.9355 0.2822,0.1436 0.614199,0.1426 0.8955,10e-4 0.2822,-0.1406 0.480999,-0.4062 0.5371,-0.7168 C 20.913502,7.1297998 27.061001,2 34.252903,2 42.390598,2 49.054199,8.6201 49.1064,16.757799 c 0.002,0.2959 0.1348,0.575201 0.3633,0.763601 0.228001,0.1885 0.525898,0.2657 0.819298,0.212901 0.4253,-0.0791 0.860401,-0.119101 1.293503,-0.119101 3.885196,0 7.046398,3.1611 7.046398,7.0459 0,3.885701 -3.161202,7.0469 -7.046398,7.0469 z"
         inkscape:connector-curvature="0"
         style="fill:#ffffff" /><path
         id="path3470"
         d="m 35.984302,45.9589 c -0.1777,-0.314399 -0.5107,-0.508701 -0.871101,-0.508701 -0.0034,0 -0.0068,0 -0.0097,0 l -3.267099,0.0322 1.243601,-9.044899 c 0.0635,-0.459999 -0.1997,-0.904301 -0.634201,-1.0704 -0.433098,-0.164002 -0.925799,-0.0087 -1.1861,0.375999 l -9.493599,14.098702 c -0.208,0.309498 -0.227101,0.708 -0.0493,1.036098 0.178201,0.327103 0.497001,0.528302 0.896002,0.5224 l 3.4585,-0.0585 -1.789101,10.890598 c -0.0772,0.471703 0.188999,0.931602 0.6362,1.098602 0.115299,0.043 0.2334,0.0635 0.350099,0.0635 0.3389,0 0.6651,-0.172901 0.851601,-0.474602 l 9.8442,-15.944401 c 0.191399,-0.309498 0.198696,-0.699199 0.02,-1.016598 z m -8.9087,11.6055 1.1636,-7.081002 c 0.0479,-0.292999 -0.0361,-0.591796 -0.230001,-0.815498 -0.190399,-0.220699 -0.466299,-0.346699 -0.7568,-0.346699 -0.0054,0 -0.0112,0 -0.0171,0 l -2.7388,0.0469 6.0152,-8.932598 L 29.6972,46.3584 c -0.0395,0.287102 0.0484,0.578102 0.240301,0.796803 0.192299,0.2178 0.491699,0.3643 0.7602,0.338897 l 2.6118,-0.0264 -6.2339,10.096699 z"
         inkscape:connector-curvature="0"
         style="fill:#ffffff" /><path
         id="path3472"
         d="m 15.899901,47.624 2.029701,-5.6319 c 0.187099,-0.519501 -0.0825,-1.092701 -0.602,-1.279301 -0.5181,-0.190399 -1.0923,0.0811 -1.2798,0.601601 l -2.0298,5.631801 c -0.187001,0.5196 0.0825,1.0928 0.6021,1.279297 0.111799,0.0411 0.2261,0.0596 0.3388,0.0596 0.4097,0 0.794,-0.252899 0.940999,-0.661099 z"
         inkscape:connector-curvature="0"
         style="fill:#ffffff" /><path
         id="path3474"
         d="M 44.7714,40.712799 C 44.253399,40.5224 43.679199,40.7939 43.491699,41.3144 l -2.0293,5.631801 c -0.187001,0.5196 0.0825,1.0928 0.602001,1.279297 0.111797,0.0411 0.226101,0.0596 0.338897,0.0596 0.409604,0 0.7939,-0.252899 0.940903,-0.661099 l 2.029297,-5.6319 c 0.187,-0.519501 -0.0825,-1.092701 -0.602097,-1.279301 z"
         inkscape:connector-curvature="0"
         style="fill:#ffffff" /><path
         id="path3476"
         d="m 18.142502,55.638599 c -0.5185,-0.191398 -1.0922,0.0811 -1.2797,0.601601 l -2.030301,5.632801 c -0.187,0.519501 0.082,1.0928 0.602001,1.279301 0.1118,0.041 0.2261,0.0596 0.338899,0.0596 0.409701,0 0.7939,-0.252999 0.940901,-0.661198 l 2.0303,-5.632801 c 0.187,-0.519501 -0.082,-1.092701 -0.6021,-1.279301 z"
         inkscape:connector-curvature="0"
         style="fill:#ffffff" /><path
         id="path3478"
         d="M 38.759701,56.4277 C 38.241699,56.237301 37.6674,56.5087 37.4799,57.029301 l -2.029697,5.631797 c -0.187103,0.519501 0.0825,1.0928 0.601997,1.279301 0.111798,0.041 0.226097,0.0596 0.338898,0.0596 0.409599,0 0.7939,-0.252998 0.940903,-0.661201 l 2.0298,-5.631798 c 0.187,-0.519501 -0.0825,-1.0928 -0.6021,-1.279301 z"
         inkscape:connector-curvature="0"
         style="fill:#ffffff" /></g><g
       id="g3480"
       style="fill:#ffffff" /><g
       id="g3482"
       style="fill:#ffffff" /><g
       id="g3484"
       style="fill:#ffffff" /><g
       id="g3486"
       style="fill:#ffffff" /><g
       id="g3488"
       style="fill:#ffffff" /><g
       id="g3490"
       style="fill:#ffffff" /><g
       id="g3492"
       style="fill:#ffffff" /><g
       id="g3494"
       style="fill:#ffffff" /><g
       id="g3496"
       style="fill:#ffffff" /><g
       id="g3498"
       style="fill:#ffffff" /><g
       id="g3500"
       style="fill:#ffffff" /><g
       id="g3502"
       style="fill:#ffffff" /><g
       id="g3504"
       style="fill:#ffffff" /><g
       id="g3506"
       style="fill:#ffffff" /><g
       id="g3508"
       style="fill:#ffffff" /></g></svg>