<?xml version="1.0" encoding="utf-8"?>
<!-- Generator: Adobe Illustrator 19.1.0, SVG Export Plug-In . SVG Version: 6.00 Build 0)  -->
<svg version="1.1" id="Layer_1" xmlns="http://www.w3.org/2000/svg" xmlns:xlink="http://www.w3.org/1999/xlink" x="0px" y="0px"
	 viewBox="0 0 64 64" enable-background="new 0 0 64 64" xml:space="preserve">
<path id="Umbrella" d="M32.9990005,2.8211999V1c0-0.5527-0.4473-1-0.9999981-1c-0.5527,0-1,0.4473-1,1v1.8211999
	c-15.1404009,0.4249001-27.2959003,10.4363003-27.2959003,22.6896c0,0.5527,0.4473,1,1,1
	c0.0549002,0,0.1025-0.0226994,0.1549997-0.0312996c0.0301003,0.0027008,0.0562,0.017601,0.0872002,0.017601c0.5527,0,1-0.4473,1-1
	c0-1.5078011,2.0029001-2.7822018,4.3740001-2.7822018s4.375,1.2744007,4.375,2.7822018c0,0.5527,0.4473,1,1,1
	c0.0586004,0,0.1096001-0.0237007,0.1654997-0.0335007c0.0560007,0.0098,0.1070004,0.0335007,0.1656008,0.0335007
	c0.5527,0,1-0.4473,1-1c0-1.5078011,2.0038986-2.7822018,4.375-2.7822018s4.375,1.2744007,4.375,2.7822018c0,0.5527,0.4471989,1,1,1
	c0.0287991,0,0.0529995-0.0139008,0.0809994-0.0164013c0.028101,0.0025005,0.0522995,0.0164013,0.0811005,0.0164013
	c0.5527,0,1-0.4473,1-1c0-1.2166004,1.3122005-2.2686005,3.0615005-2.6345005l0.0009995,35.0162964
	C30.9931011,58.0479012,30.802702,62,26.9160023,62c-1.1455002,0-2.0049-0.3096008-2.5537014-0.9188995
	c-0.9629002-1.0694008-0.7929993-2.7910004-0.7919998-2.8036995c0.0635014-0.5489006-0.3300991-1.045002-0.8788986-1.107502
	c-0.5488014-0.0692978-1.0440006,0.3311005-1.1074009,0.8789024c-0.0126991,0.1054993-0.2803001,2.6074982,1.2782993,4.3544998
	C23.8066025,63.4628983,25.1699009,64,26.9160023,64c4.6348,0,6.0049-3.955101,6.0829983-6.0839996V22.7604008
	c2.0578995,0.2175999,3.6894989,1.3778,3.6894989,2.7367001c0,0.5527,0.4472008,1,1,1
	c0.0312004,0,0.0575981-0.0150013,0.0883026-0.0178013c0.0307961,0.0028,0.0571976,0.0178013,0.088398,0.0178013
	c0.5527992,0,1-0.4473,1-1c0-1.5078011,2.0038986-2.7822018,4.3759995-2.7822018
	c2.1974983,0,4.0580978,1.0981007,4.3218002,2.4587002c-0.0091019,0.1074009-0.0209999,0.2140999-0.0209999,0.3235016
	c0,0.5527,0.4472008,1,1,1c0.0131989,0,0.0238991-0.0071011,0.0370979-0.0076008
	c0.0132027,0.0004997,0.0238991,0.0076008,0.0371017,0.0076008c0.5527,0,1-0.4473,1-1
	c0-0.1094017-0.012001-0.2161007-0.0209999-0.3235016c0.2636986-1.3605995,2.1242981-2.4587002,4.3218002-2.4587002
	c2.3710976,0,4.3740005,1.2744007,4.3740005,2.7822018c0,0.1410999,0.0304985,0.2743988,0.0829964,0.3959999
	c0.1501999,0.3624001,0.5059013,0.6176987,0.9229012,0.6176987c0.5527,0,1-0.4473,1-1
	C60.2968979,13.2574997,48.1403999,3.2460999,32.9990005,2.8211999z M53.9169998,20.7148991
	c-2.2607994,0-4.209301,0.841301-5.3379021,2.1372013c-1.1287003-1.2959003-3.077198-2.1372013-5.3378983-2.1372013
	c-2.3498993,0-4.358902,0.9106007-5.4643974,2.2940006c-1.1054039-1.3834-3.114502-2.2940006-5.4643021-2.2940006
	c-2.3444977,0-4.3493977,0.9065018-5.4560986,2.2846012c-1.106699-1.3780994-3.1114998-2.2846012-5.4559994-2.2846012
	c-2.4043007,0-4.4532013,0.9524002-5.5406008,2.3900013c-1.0873995-1.4376011-3.1362-2.3900013-5.5404997-2.3900013
	c-1.6264,0-3.0883999,0.4382-4.2034001,1.1650009C8.302702,12.1863003,19.0722008,4.8007998,31.9990025,4.8007998
	c12.8524952,0,23.5734959,7.2998004,25.8466969,16.9104004C56.7694969,21.0863991,55.4130974,20.7148991,53.9169998,20.7148991z"/>
<g>
</g>
<g>
</g>
<g>
</g>
<g>
</g>
<g>
</g>
<g>
</g>
<g>
</g>
<g>
</g>
<g>
</g>
<g>
</g>
<g>
</g>
<g>
</g>
<g>
</g>
<g>
</g>
<g>
</g>
</svg>
