<?xml version="1.0" encoding="UTF-8" standalone="no"?>
<!-- Generator: Adobe Illustrator 19.1.0, SVG Export Plug-In . SVG Version: 6.00 Build 0)  -->

<svg
   xmlns:dc="http://purl.org/dc/elements/1.1/"
   xmlns:cc="http://creativecommons.org/ns#"
   xmlns:rdf="http://www.w3.org/1999/02/22-rdf-syntax-ns#"
   xmlns:svg="http://www.w3.org/2000/svg"
   xmlns="http://www.w3.org/2000/svg"
   xmlns:sodipodi="http://sodipodi.sourceforge.net/DTD/sodipodi-0.dtd"
   xmlns:inkscape="http://www.inkscape.org/namespaces/inkscape"
   version="1.1"
   id="Layer_1"
   x="0px"
   y="0px"
   viewBox="0 0 64 64"
   enable-background="new 0 0 64 64"
   xml:space="preserve"
   inkscape:version="0.48.5 r10040"
   width="100%"
   height="100%"
   sodipodi:docname="rain.svg"><metadata
     id="metadata3129"><rdf:RDF><cc:Work
         rdf:about=""><dc:format>image/svg+xml</dc:format><dc:type
           rdf:resource="http://purl.org/dc/dcmitype/StillImage" /><dc:title></dc:title></cc:Work></rdf:RDF></metadata><defs
     id="defs3127" /><sodipodi:namedview
     pagecolor="#ffffff"
     bordercolor="#666666"
     borderopacity="1"
     objecttolerance="10"
     gridtolerance="10"
     guidetolerance="10"
     inkscape:pageopacity="0"
     inkscape:pageshadow="2"
     inkscape:window-width="1920"
     inkscape:window-height="1030"
     id="namedview3125"
     showgrid="false"
     inkscape:zoom="13.203125"
     inkscape:cx="32"
     inkscape:cy="32"
     inkscape:window-x="0"
     inkscape:window-y="0"
     inkscape:window-maximized="1"
     inkscape:current-layer="Layer_1" /><g
     id="g3095" /><g
     id="g3097" /><g
     id="g3099" /><g
     id="g3101" /><g
     id="g3103" /><g
     id="g3105" /><g
     id="g3107" /><g
     id="g3109" /><g
     id="g3111" /><g
     id="g3113" /><g
     id="g3115" /><g
     id="g3117" /><g
     id="g3119" /><g
     id="g3121" /><g
     id="g3123" /><g
     id="g4108"
     transform="matrix(0.98579889,0,0,0.99621302,0.41656477,-1.5829593)"
     style="fill:#ffffff"><g
       id="Waves"
       style="fill:#ffffff"><path
         id="path4066"
         d="m 16.513723,24.153606 c 5.327601,0 10.651301,-1.834999 16.044901,-5.503 9.075695,-6.174299 20.531201,-6.172299 29.893498,0.0079 0.462398,0.3032 1.0821,0.1743 1.384296,-0.291399 0.302704,-0.465601 0.173409,-1.0907 -0.288593,-1.3959 -10.048805,-6.631101 -22.351505,-6.628101 -32.108402,0.0079 -10.035099,6.826 -19.81,6.827 -29.8813004,-10e-4 -0.4585,-0.3111 -1.0796,-0.186998 -1.3881999,0.274701 -0.3081,0.461601 -0.186,1.0877 0.272,1.3988 5.4121003,3.668001 10.7436003,5.502 16.0718003,5.502 z"
         inkscape:connector-curvature="0"
         style="fill:#ffffff" /><path
         id="path4068"
         d="m 63.547825,30.893906 c -10.049805,-6.6311 -22.352505,-6.6281 -32.108402,0.0079 -10.036101,6.827999 -19.811001,6.826999 -29.8813004,-0.001 -0.4585,-0.3111 -1.0796,-0.187999 -1.3877,0.274701 -0.3086,0.4617 -0.1865,1.087799 0.2715,1.398799 5.4116001,3.668 10.7426994,5.502999 16.0708004,5.502999 5.327599,-0.001 10.6514,-1.834999 16.045901,-5.503899 9.074695,-6.1753 20.530296,-6.1714 29.893497,0.0078 0.462399,0.3032 1.0826,0.174298 1.3848,-0.291401 0.302201,-0.465599 0.172906,-1.0907 -0.289096,-1.3959 z"
         inkscape:connector-curvature="0"
         style="fill:#ffffff" /><path
         id="path4070"
         d="m 63.547825,44.816605 c -10.049805,-6.629097 -22.352001,-6.626099 -32.108402,0.0079 -10.0341,6.828003 -19.8081,6.830002 -29.8813004,-0.001 -0.4585,-0.311001 -1.0796,-0.187 -1.3877,0.2747 -0.3086,0.461701 -0.1865,1.0878 0.2715,1.3989 5.4120998,3.668903 10.7440994,5.503902 16.0718004,5.502903 5.3276,0 10.6513,-1.835003 16.044401,-5.503903 9.076195,-6.173397 20.530796,-6.171398 29.893997,0.0078 0.462399,0.3032 1.0826,0.174301 1.3848,-0.291298 0.302201,-0.465702 0.172906,-1.090801 -0.289096,-1.396003 z"
         inkscape:connector-curvature="0"
         style="fill:#ffffff" /></g><g
       id="g4072"
       style="fill:#ffffff" /><g
       id="g4074"
       style="fill:#ffffff" /><g
       id="g4076"
       style="fill:#ffffff" /><g
       id="g4078"
       style="fill:#ffffff" /><g
       id="g4080"
       style="fill:#ffffff" /><g
       id="g4082"
       style="fill:#ffffff" /><g
       id="g4084"
       style="fill:#ffffff" /><g
       id="g4086"
       style="fill:#ffffff" /><g
       id="g4088"
       style="fill:#ffffff" /><g
       id="g4090"
       style="fill:#ffffff" /><g
       id="g4092"
       style="fill:#ffffff" /><g
       id="g4094"
       style="fill:#ffffff" /><g
       id="g4096"
       style="fill:#ffffff" /><g
       id="g4098"
       style="fill:#ffffff" /><g
       id="g4100"
       style="fill:#ffffff" /></g></svg>